# xmcd
#
# Track frame offsets:
#	150
#	14290
#	29409
#	46260
#	63764
#	80180
#	98760
#	117389
#	133262
#	148210
#	163033
#	179097
#
# Disc length: 2592 seconds
#
# Revision: 1
# Processed by: cddbd v1.5.2PL0 Copyright (c) Steve Scherf et al.
# Submitted via: audiograbber 1.83.01
#
DISCID=ad0a1e0c
DTITLE=The Baseballs - Strike
DYEAR=2008
DGENRE=Blues
TTITLE0=Umbrella
TTITLE1=Love In This Club
TTITLE2=Hey There Delilah
TTITLE3=Bleeding Love
TTITLE4=Hot'n Cold
TTITLE5=I Don't Feel Like Dancin'
TTITLE6=Don't Cha
TTITLE7=Let's Get Loud
TTITLE8=Angels
TTITLE9=Crazy In Love
TTITLE10=This Love
TTITLE11=The Look
EXTD=
EXTT0=
EXTT1=
EXTT2=
EXTT3=
EXTT4=
EXTT5=
EXTT6=
EXTT7=
EXTT8=
EXTT9=
EXTT10=
EXTT11=
PLAYORDER=
